<svg xmlns="http://www.w3.org/2000/svg" viewBox="0 0 57.11 228.13"><defs><style>.cls-1{fill:none;stroke:#000;stroke-miterlimit:10;}</style></defs><g id="Laag_2" data-name="Laag 2"><g id="Laag_1-2" data-name="Laag 1"><path class="cls-1" d="M53.55,40.39c-2-7.58-4.06-15.52-9.64-24A60.47,60.47,0,0,0,28.56.62h0a60.14,60.14,0,0,0-15.35,15.8c-5.59,8.45-7.66,16.39-9.64,24a111.55,111.55,0,0,0-3.07,17V199.57a28.06,28.06,0,0,0,28.06,28.06h0a28.05,28.05,0,0,0,28.05-28.06V57.34A112.58,112.58,0,0,0,53.55,40.39Z"/><circle class="cls-1" cx="28.56" cy="108.88" r="17.95"/><path class="cls-1" d="M28.56,116.71a16.47,16.47,0,0,0-11.75,5.1,14.73,14.73,0,0,0,4.27,3.39,15,15,0,0,0,7.48,1.63,17.09,17.09,0,0,0,8.37-2.49,17.91,17.91,0,0,0,3.37-2.53A16.47,16.47,0,0,0,28.56,116.71Z"/></g></g></svg>