<svg class="background-base background" xmlns="http://www.w3.org/2000/svg" width="500" height="493"><style>.st1,.st2{fill:none;stroke:#000;stroke-width:2;stroke-linecap:round}.st2{stroke:gray}.st3{font-family:Liberation Sans,Arial}.st4{font-size:48px}.st5{font-size:20px}</style><g id="compass"><g id="minutes"><path class="st1" d="M250 21.9v40M211 25.3l6.9 39.4M173.2 35.4L186.9 73M137.7 52l20 34.6M105.6 74.4l25.7 30.7M77.9 102.1l30.7 25.7M55.5 134.2l34.6 20M38.9 169.7l37.6 13.7M28.8 207.5l39.4 6.9M25.4 246.5h40M28.8 285.5l39.4-6.9M38.9 323.3l37.6-13.7M55.5 358.8l34.6-20M77.9 390.9l30.7-25.7M105.6 418.6l25.7-30.7M137.7 441l20-34.6M173.2 457.6l13.7-37.6M211 467.7l6.9-39.4M250 471.1v-40M289 467.7l-6.9-39.4M326.8 457.6L313.1 420M362.3 441l-20-34.6M394.4 418.6l-25.7-30.7M422.1 390.9l-30.7-25.7M444.5 358.8l-34.6-20M461.1 323.3l-37.6-13.7M471.2 285.5l-39.4-6.9M474.6 246.5h-40M471.2 207.5l-39.4 6.9M461.1 169.7l-37.6 13.7M444.5 134.2l-34.6 20M422.1 102.1l-30.7 25.7M394.4 74.4l-25.7 30.7M362.3 52l-20 34.6M326.8 35.4L313.1 73M289 25.3l-6.9 39.4"/></g><g id="seconds"><path class="st1" d="M242.7 37l.9 25M235.4 37.4l1.7 24.9M228.1 38l2.6 24.9M220.8 38.9l3.5 24.8M206.4 41.5l5.2 24.4M199.3 43.1l6 24.3M192.2 45l6.9 24.1M185.2 47.2l7.8 23.7M171.5 52.2l9.3 23.1M164.7 55l10.2 22.9M158.1 58.1l11 22.5M151.6 61.4l11.7 22.1M138.9 68.7L152.2 90M132.8 72.7l14 20.8M126.8 76.9l14.7 20.3M121 81.3l15.3 19.7M109.8 90.7l16.7 18.6M104.4 95.7l17.4 18M99.2 100.9l18 17.4M94.2 106.3l18.6 16.7M84.8 117.5l19.7 15.3M80.4 123.3l20.3 14.7M76.2 129.3l20.8 14M72.2 135.4l21.3 13.3M64.9 148.1L87 159.8M61.6 154.6l22.5 11M58.5 161.2l22.9 10.2M55.7 168l23.1 9.3M50.7 181.7l23.7 7.8M48.5 188.7l24.1 6.9M46.6 195.8l24.3 6M45 202.9l24.4 5.2M42.4 217.3l24.8 3.5M41.5 224.6l24.9 2.6M40.9 231.9l24.9 1.7M40.5 239.2l25 .9M40.5 253.8l25-.9M40.9 261.1l24.9-1.7M41.5 268.4l24.9-2.6M42.4 275.7l24.8-3.5M45 290.1l24.4-5.2M46.6 297.2l24.3-6M48.5 304.3l24.1-6.9M50.7 311.3l23.7-7.8M55.7 325l23.1-9.3M58.5 331.8l22.9-10.2M61.6 338.4l22.5-11M64.9 344.9L87 333.2M72.2 357.6l21.3-13.3M76.2 363.7l20.8-14M80.4 369.7l20.3-14.7M84.8 375.5l19.7-15.3M94.2 386.7l18.6-16.7M99.2 392.1l18-17.4M104.4 397.3l17.4-18M109.8 402.3l16.7-18.6M121 411.7l15.3-19.7M126.8 416.1l14.7-20.3M132.8 420.3l14-20.8M138.9 424.3l13.3-21.3M151.6 431.6l11.7-22.1M158.1 434.9l11-22.5M164.7 438l10.2-22.9M171.5 440.8l9.3-23.1M185.2 445.8l7.8-23.7M192.2 448l6.9-24.1M199.3 449.9l6-24.3M206.4 451.5l5.2-24.4M220.8 454.1l3.5-24.8M228.1 455l2.6-24.9M235.4 455.6l1.7-24.9M242.7 456l.9-25M257.3 456l-.9-25M264.6 455.6l-1.7-24.9M271.9 455l-2.6-24.9M279.2 454.1l-3.5-24.8M293.6 451.5l-5.2-24.4M300.7 449.9l-6-24.3M307.8 448l-6.9-24.1M314.8 445.8l-7.8-23.7M328.5 440.8l-9.3-23.1M335.3 438l-10.2-22.9M341.9 434.9l-11-22.5M348.4 431.6l-11.7-22.1M361.1 424.3L347.8 403M367.2 420.3l-14-20.8M373.2 416.1l-14.7-20.3M379 411.7L363.7 392M390.2 402.3l-16.7-18.6M395.6 397.3l-17.4-18M400.8 392.1l-18-17.4M405.8 386.7L387.2 370M415.2 375.5l-19.7-15.3M419.6 369.7L399.3 355M423.8 363.7l-20.8-14M427.8 357.6l-21.3-13.3M435.1 344.9L413 333.2M438.4 338.4l-22.5-11M441.5 331.8l-22.9-10.2M444.3 325l-23.1-9.3M449.3 311.3l-23.7-7.8M451.5 304.3l-24.1-6.9M453.4 297.2l-24.3-6M455 290.1l-24.4-5.2M457.6 275.7l-24.8-3.5M458.5 268.4l-24.9-2.6M459.1 261.1l-24.9-1.7M459.5 253.8l-25-.9M459.5 239.2l-25 .9M459.1 231.9l-24.9 1.7M458.5 224.6l-24.9 2.6M457.6 217.3l-24.8 3.5M455 202.9l-24.4 5.2M453.4 195.8l-24.3 6M451.5 188.7l-24.1 6.9M449.3 181.7l-23.7 7.8M444.3 168l-23.1 9.3M441.5 161.2l-22.9 10.2M438.4 154.6l-22.5 11M435.1 148.1L413 159.8M427.8 135.4l-21.3 13.3M423.8 129.3l-20.8 14M419.6 123.3L399.3 138M415.2 117.5l-19.7 15.3M405.8 106.3L387.2 123M400.8 100.9l-18 17.4M395.6 95.7l-17.4 18M390.2 90.7l-16.7 18.6M379 81.3L363.7 101M373.2 76.9l-14.7 20.3M367.2 72.7l-14 20.8M361.1 68.7L347.8 90M348.4 61.4l-11.7 22.1M341.9 58.1l-11 22.5M335.3 55l-10.2 22.9M328.5 52.2l-9.3 23.1M314.8 47.2L307 70.9M307.8 45l-6.9 24.1M300.7 43.1l-6 24.3M293.6 41.5l-5.2 24.4M279.2 38.9l-3.5 24.8M271.9 38l-2.6 24.9M264.6 37.4l-1.7 24.9M257.3 37l-.9 25"/></g><path class="st2" d="M250 206.4v80M209.9 246.5h80"/></g><g id="text"><text transform="rotate(90 78.418 302.766)" class="st3 st4">E</text><text transform="translate(235.106 415.14)" class="st3 st4">S</text><text transform="translate(233.781 109.316)" class="st3 st4">N</text><g id="Degrees"><text transform="translate(246.663 15.25)" class="st3 st5">0</text><text transform="rotate(-90 135.963 117.212)" class="st3 st5">270</text><text transform="rotate(180 130.006 238.874)" class="st3 st5">180</text><text transform="rotate(90 122.38 358.868)" class="st3 st5">90</text></g><text transform="rotate(-90 188.176 82.816)" class="st3 st4" id="English">W</text></g></svg>