<svg xmlns="http://www.w3.org/2000/svg" viewBox="0 0 2904.17 2904.17"><defs><style>.cls-1,.cls-2{fill:none;stroke-linecap:round;stroke-width:20px;}.cls-1{stroke:#000;}.cls-2{stroke:gray;}.cls-3,.cls-4{isolation:isolate;font-family:ArialMT, Arial;}.cls-3{font-size:280.58px;}.cls-4{font-size:116.91px;}</style></defs><g id="Laag_2" data-name="Laag 2"><g id="Laag_1-2" data-name="Laag 1"><g id="compass"><g id="minutes"><path class="cls-1" d="M1452.09,139.2V373m-228-213.95,40.34,230.32m-261.3-171.28,80.09,219.79M795.64,315.15,912.55,517.4M608,446.09,758.23,625.54M446.08,608,625.54,758.24m-310.4,37.41L517.4,912.56m-299.29,90.6,219.79,80.08M159.07,1224.12l230.31,40.33M139.19,1452.09H373m-213.94,228,230.31-40.34M218.11,1901l219.79-80.09m-122.76,287.6L517.4,1991.63m-71.32,304.55L625.54,2146M608,2458.1l150.23-179.46M795.64,2589l116.91-202.26m90.6,299.29,80.09-219.79m140.87,278.83,40.34-230.31M1452.09,2765V2531.17m228,213.94-40.33-230.31M1901,2686.07l-80.08-219.79M2108.53,2589l-116.91-202.26m304.55,71.32-150.23-179.46m312.15,17.54L2278.64,2146M2589,2108.54l-202.25-116.91m299.29-90.6-219.79-80.09m278.83-140.87-230.32-40.34M2765,1452.09H2531.16m214-228-230.32,40.33m171.28-261.29-219.79,80.08M2589,795.65,2386.78,912.56M2458.09,608,2278.64,758.24m17.53-312.15L2145.94,625.54m-37.41-310.39L1991.62,517.4M1901,218.11,1820.94,437.9M1680.06,159.07l-40.33,230.32"/></g><g id="seconds"><path class="cls-1" d="M1409.41,227.47l5.27,146.13m-47.94-143.8,9.94,145.56m-52.61-142,15.2,145.55M1281.4,238.57l20.46,145M1197.22,253.77l30.4,142.63m-71.9-133.28,35.07,142.05m-76.57-130.94,40.33,140.88m-81.25-128,45.59,138.54M993.22,316.32l54.36,135M953.47,332.68l59.62,133.87m-98.2-115.74,64.3,131.52M876.89,370.1l68.39,129.18M802.65,412.77,880.4,537.28M767,436.15l81.83,121.59m-116.91-97,85.93,118.66M698,486.42l89.44,115.16M632.55,541.37l97.62,108.72M601,570.6,702.7,675.81M570.59,601,675.81,702.7M541.36,632.56l108.73,97.62M486.41,698l115.16,89.43M460.69,731.93l118.67,85.93M436.14,767l121.59,81.84m-145-46.18,124.51,77.75M370.09,876.9l129.18,68.39M350.8,914.89l131.52,64.3M332.68,953.47l133.86,59.63M316.31,993.22l135,54.37m-164.26,25.72,138.54,45.59m-151.4-4.68,140.88,40.34m-152,1.17,142,35.07m-151.4,6.43,142.63,30.4M238.57,1281.4l145,20.46m-150.22,22.22,145.55,15.2M229.8,1366.75l145.55,9.94m-147.89,32.73,146.14,5.26m-146.14,80.08,146.14-5.26m-143.8,47.94,145.55-9.94m-142,52.61,145.55-15.2m-140.29,57.87,145-20.46M253.76,1707l142.63-30.4m-133.27,71.9,142-35.07M274.22,1790l140.88-40.33m-128,81.25,138.54-45.6M316.31,1911l135-54.36m-118.66,94.11,133.86-59.62m-115.74,98.2L482.32,1925m-112.23,102.3,129.18-68.39m-86.51,142.62,124.51-77.74m-101.13,113.4,121.59-81.83m-97,116.91,118.67-85.93m-92.95,119.83,115.16-89.44m-60.21,154.91L650.09,2174m-79.5,129.18,105.22-101.71M601,2333.59,702.7,2228.37m-70.15,134.45,97.62-108.73M698,2417.77l89.44-115.16m-55.54,140.88,85.93-118.67M767,2468l81.83-121.59m-46.18,145,77.75-124.51m-3.51,167.18,68.39-129.19m-30.39,148.48,64.3-131.52M953.47,2571.5l59.62-133.86m-19.87,150.23,54.36-135m25.72,164.26,45.59-138.54m-4.67,151.4,40.33-140.88m1.17,152,35.07-142m6.43,151.39,30.4-142.62m53.78,157.82,20.46-145m22.21,150.22,15.2-145.55m27.47,149.06,9.94-145.55m32.73,147.89,5.27-146.14m80.08,146.14-5.26-146.14m47.93,143.8-9.94-145.55m52.61,142-15.2-145.55m57.87,140.29-20.45-145M1707,2650.41l-30.4-142.62m71.9,133.27-35.07-142M1790,2630l-40.33-140.88m81.25,128-45.59-138.54M1911,2587.87l-54.37-135m94.12,118.66-59.63-133.86m98.21,115.74L1925,2421.86m102.29,112.23-68.39-129.19m142.63,86.52-77.75-124.51M2137.18,2468l-81.84-121.59m116.91,97-85.93-118.67m119.83,92.95-89.43-115.16m154.9,60.21L2174,2254.09m129.19,79.5-101.71-105.22m132.1,74.82-105.21-101.71m134.44,70.15L2254.09,2174m163.67,32.15-115.16-89.44m140.88,55.54-118.66-85.93M2468,2137.18l-121.59-81.83m145,46.17-124.51-77.74m167.18,3.51L2404.9,1958.9m148.47,30.39L2421.85,1925m149.64,25.72-133.86-59.62M2587.86,1911l-135-54.36m164.26-25.72-138.54-45.6M2630,1790l-140.88-40.33m152-1.17-142-35.07m151.4-6.43-142.63-30.4m157.83-53.78-145-20.46m150.23-22.21-145.55-15.2m149.06-27.47-145.56-9.94m147.89-32.74-146.13-5.26m146.13-80.08-146.13,5.26m143.8-47.93-145.56,9.94m142-52.61-145.55,15.2m140.29-57.88-145,20.46m129.77-104.63-142.63,30.4m133.28-71.9-142,35.07M2630,1114.22l-140.88,40.34m128-81.25-138.54,45.59m109.31-125.68-135,54.37m118.66-94.12-133.86,59.63m115.74-98.21-131.52,64.3M2534.08,876.9,2404.9,945.29m86.51-142.63L2366.9,880.41M2468,767l-121.59,81.84m97-116.91-118.66,85.93M2417.76,698,2302.6,787.46m60.21-154.9-108.72,97.62M2333.58,601,2228.37,702.7m74.82-132.1L2201.48,675.81m70.14-134.44L2174,650.09m32.15-163.67-89.43,115.16m55.53-140.88-85.93,118.66m50.86-143.21-81.84,121.59m46.18-145-77.75,124.51m3.51-167.18-68.39,129.18m30.4-148.47L1925,482.33m25.72-149.65-59.63,133.87M1911,316.32l-54.37,135m-25.72-164.26-45.59,138.54m4.67-151.4-40.33,140.88m-1.17-152-35.07,142.05M1707,253.77l-30.4,142.63m-53.78-157.83-20.45,145M1580.1,233.31l-15.2,145.55M1537.43,229.8l-9.94,145.56m-32.73-147.89L1489.5,373.6"/></g><path class="cls-2" d="M1452.09,1217.69v467.64m-234.41-233.24h467.64"/></g><g id="text"><text class="cls-3" transform="translate(2218.92 1322.6) rotate(90)">E</text><text class="cls-3" transform="translate(1365.03 2437.87)">S</text><text class="cls-3" transform="translate(1357.28 650.19)">N</text><g id="Degrees"><text class="cls-4" transform="translate(1432.58 100.33)">0</text><text class="cls-4" transform="translate(100.33 1491.11) rotate(-90)">270</text><text class="cls-4" transform="translate(1510.61 2803.85) rotate(180)">180</text><text class="cls-4" transform="translate(2803.84 1393.57) rotate(90)">90</text></g><text id="English" class="cls-3" transform="translate(606.6 1595.26) rotate(-90)">W</text></g></g></g></svg>